# Blender v2.69 (sub 0) OBJ File: 'walls.blend'
# www.blender.org
mtllib wall1.mtl
o Plane.001
v -3.000000 -3.000000 -0.000000
v 3.000000 -3.000000 -0.000000
v -3.000000 3.000000 0.000000
v 3.000000 3.000000 0.000000
v 0.000000 3.000000 0.000000
v 3.000000 0.000000 0.000000
v -3.000000 0.000000 0.000000
v 1.500000 -3.000000 -0.000000
v 1.500000 3.000000 0.000000
v 3.000000 -1.500000 -0.000000
v -3.000000 1.500000 0.000000
v -1.500000 -3.000000 -0.000000
v -1.500000 3.000000 0.000000
v 3.000000 1.500000 0.000000
v -3.000000 -1.500000 -0.000000
v 0.000000 1.500000 0.000000
v 1.500000 0.000000 0.000000
v -1.195207 0.148489 -0.000000
v -1.500000 1.500000 0.000000
v 1.500000 1.500000 0.000000
v 1.470003 -1.351862 -0.000000
v -1.500000 -1.500000 -0.000000
v 2.250000 -3.000000 -0.000000
v 2.250000 3.000000 0.000000
v 3.000000 -2.250000 -0.000000
v -3.000000 2.250000 0.000000
v -2.250000 -3.000000 -0.000000
v -2.250000 3.000000 0.000000
v 3.000000 2.250000 0.000000
v -3.000000 -2.250000 -0.000000
v 0.000000 2.250000 0.000000
v 2.250000 0.000000 0.000000
v 1.087579 -3.000000 -0.000000
v 0.750000 3.000000 0.000000
v 3.000000 -0.750000 -0.000000
v -3.000000 0.750000 0.000000
v -1.245678 -2.654855 -0.000000
v -0.750000 3.000000 0.000000
v 3.000000 0.750000 0.000000
v -3.000000 -0.750000 -0.000000
v -0.093827 1.195348 -0.000000
v 0.727491 0.055018 -0.000000
v -2.250000 0.000000 0.000000
v -1.500000 2.250000 0.000000
v -1.757902 0.968825 0.000000
v -1.164206 1.226468 0.000000
v -2.250000 1.500000 0.000000
v 1.500000 2.250000 0.000000
v 1.500000 0.750000 0.000000
v 2.250000 1.500000 0.000000
v 0.750000 1.500000 0.000000
v 1.158320 -0.991020 -0.000000
v 1.181780 -1.650152 -0.000000
v 2.250000 -1.500000 -0.000000
v -1.500000 -0.750000 -0.000000
v -1.500000 -2.250000 -0.000000
v -0.942218 -1.109298 -0.000000
v -2.250000 -1.500000 -0.000000
v -2.250000 2.250000 0.000000
v 0.750000 2.250000 0.000000
v 0.835967 -0.507729 -0.000000
v -2.250000 -0.750000 -0.000000
v -0.750000 2.250000 0.000000
v -2.250000 0.750000 0.000000
v 2.250000 2.250000 0.000000
v 2.250000 0.750000 0.000000
v 0.174811 1.178678 -0.000000
v 2.250000 -0.750000 -0.000000
v 2.250000 -2.250000 -0.000000
v 0.719658 -1.709500 -0.000000
v -0.828141 -0.210827 -0.000000
v -0.919316 -1.904855 -0.000000
v -2.250000 -2.250000 -0.000000
v -0.689749 -3.000000 -0.000000
v 0.421901 -2.992957 -0.000000
v -0.111715 -2.327381 -0.000000
vn 0.000000 0.000000 -1.000000
vn -0.000000 0.000001 -1.000000
usemtl Material.003
s off
f 59//1 26//1 3//1
f 60//1 31//1 5//1
f 62//1 40//1 7//1
f 63//1 44//1 13//1
f 64//1 36//1 11//1
f 65//1 48//1 9//1
f 66//1 49//1 20//1
f 67//1 41//1 16//1
f 68//1 52//1 17//1
f 69//1 53//1 21//1
f 71//1 55//1 18//1
f 72//1 56//1 22//1
f 73//1 30//1 15//1
f 44//1 59//1 28//1
f 19//1 47//1 59//1
f 47//1 11//1 26//1
f 48//1 60//1 34//1
f 20//1 51//1 60//1
f 51//1 16//1 31//1
f 52//1 61//1 17//1
f 55//1 62//1 43//1
f 22//1 58//1 62//1
f 58//1 15//1 40//1
f 31//1 63//1 38//1
f 16//1 46//1 63//1
f 46//1 19//1 44//1
f 45//1 64//1 47//1
f 18//1 43//1 64//1
f 43//1 7//1 36//1
f 29//1 65//1 24//1
f 14//1 50//1 65//1
f 50//1 20//1 48//1
f 39//1 66//1 50//1
f 6//1 32//1 66//1
f 32//1 17//1 49//1
f 49//1 67//1 51//1
f 17//1 42//1 67//1
f 35//1 68//1 32//1
f 10//1 54//1 68//1
f 54//1 21//1 52//1
f 25//1 69//1 54//1
f 2//1 23//1 69//1
f 23//1 8//1 53//1
f 8//1 33//1 53//1
f 57//1 22//1 55//1
f 37//1 12//1 56//1
f 56//1 73//1 58//1
f 12//1 27//1 73//1
f 27//1 1//1 30//1
f 28//1 59//1 3//1
f 34//1 60//1 5//1
f 43//1 62//1 7//1
f 38//1 63//1 13//1
f 47//1 64//1 11//1
f 24//1 65//1 9//1
f 50//1 66//1 20//1
f 51//1 67//1 16//1
f 32//1 68//1 17//1
f 54//1 69//1 21//1
f 57//1 72//1 22//1
f 58//1 73//1 15//1
f 13//1 44//1 28//1
f 44//1 19//1 59//1
f 59//1 47//1 26//1
f 9//1 48//1 34//1
f 48//1 20//1 60//1
f 60//1 51//1 31//1
f 61//1 42//1 17//1
f 18//1 55//1 43//1
f 55//1 22//1 62//1
f 62//1 58//1 40//1
f 5//1 31//1 38//1
f 31//1 16//1 63//1
f 63//1 46//1 44//1
f 16//1 41//1 46//1
f 19//1 45//1 47//1
f 45//1 18//1 64//1
f 64//1 43//1 36//1
f 4//1 29//1 24//1
f 29//1 14//1 65//1
f 65//1 50//1 48//1
f 14//1 39//1 50//1
f 39//1 6//1 66//1
f 66//1 32//1 49//1
f 20//1 49//1 51//1
f 49//1 17//1 67//1
f 6//1 35//1 32//1
f 35//1 10//1 68//1
f 68//1 54//1 52//1
f 10//1 25//1 54//1
f 25//1 2//1 69//1
f 69//1 23//1 53//1
f 33//1 70//1 53//1
f 71//1 57//1 55//1
f 72//1 37//1 56//1
f 22//1 56//1 58//1
f 56//1 12//1 73//1
f 73//1 27//1 30//1
f 74//1 76//1 75//1
f 21//1 53//1 52//1
f 61//1 52//1 70//1
f 70//1 52//1 53//1
f 19//1 46//1 45//1
f 46//2 41//2 45//2
f 45//1 41//1 18//1
f 18//1 41//1 71//1
