# Blender v2.69 (sub 0) OBJ File: 'walls.blend'
# www.blender.org
mtllib wall3.mtl
o Plane.003
v -3.000000 -3.000000 -0.000000
v 3.000000 -3.000000 -0.000000
v -3.000000 3.000000 0.000000
v 3.000000 3.000000 0.000000
v 0.000000 3.000000 0.000000
v 3.000000 0.000000 0.000000
v -3.000000 0.000000 0.000000
v 1.500000 -3.000000 -0.000000
v 1.500000 3.000000 0.000000
v 3.000000 -1.500000 -0.000000
v -3.000000 1.500000 0.000000
v -1.500000 -3.000000 -0.000000
v -1.500000 3.000000 0.000000
v 3.000000 1.500000 0.000000
v -3.000000 -1.500000 -0.000000
v 0.000000 1.500000 0.000000
v 1.278778 0.000000 0.000000
v -1.278778 0.000000 0.000000
v -1.500000 1.500000 0.000000
v 1.500000 1.500000 0.000000
v 1.500000 -1.500000 -0.000000
v -1.500000 -1.500000 -0.000000
v 2.250000 -3.000000 -0.000000
v 2.250000 3.000000 0.000000
v 3.000000 -2.250000 -0.000000
v -3.000000 2.250000 0.000000
v -2.250000 -3.000000 -0.000000
v -2.250000 3.000000 0.000000
v 3.000000 2.250000 0.000000
v -3.000000 -2.250000 -0.000000
v 0.000000 2.250000 0.000000
v 2.250000 0.000000 0.000000
v 0.750000 3.000000 0.000000
v 3.000000 -0.750000 -0.000000
v -3.000000 0.750000 0.000000
v -0.750000 3.000000 0.000000
v 3.000000 0.750000 0.000000
v -3.000000 -0.750000 -0.000000
v 0.000000 0.750000 0.000000
v -2.250000 0.000000 0.000000
v -1.500000 2.250000 0.000000
v -1.500000 0.750000 0.000000
v -0.750000 1.500000 0.000000
v -2.250000 1.500000 0.000000
v 1.500000 2.250000 0.000000
v 1.500000 0.750000 0.000000
v 2.250000 1.500000 0.000000
v 0.750000 1.500000 0.000000
v 1.500000 -0.750000 -0.000000
v 1.500000 -2.250000 -0.000000
v 2.250000 -1.500000 -0.000000
v -1.500000 -0.750000 -0.000000
v -1.500000 -2.250000 -0.000000
v -2.250000 -1.500000 -0.000000
v -2.250000 2.250000 0.000000
v 0.750000 2.250000 0.000000
v -2.250000 -0.750000 -0.000000
v -0.750000 2.250000 0.000000
v -0.750000 0.587944 0.000000
v -2.250000 0.750000 0.000000
v 2.250000 2.250000 0.000000
v 2.250000 0.750000 0.000000
v 0.750000 0.587944 0.000000
v 2.250000 -0.750000 -0.000000
v 2.250000 -2.250000 -0.000000
v -2.250000 -2.250000 -0.000000
vn 0.000000 0.000000 -1.000000
usemtl None
s off
f 55//1 26//1 3//1
f 56//1 31//1 5//1
f 56//1 48//1 31//1
f 57//1 38//1 7//1
f 58//1 41//1 13//1
f 59//1 42//1 43//1
f 60//1 35//1 11//1
f 61//1 45//1 9//1
f 62//1 46//1 20//1
f 63//1 39//1 48//1
f 64//1 49//1 17//1
f 65//1 50//1 21//1
f 45//1 20//1 56//1
f 9//1 45//1 33//1
f 55//1 44//1 26//1
f 66//1 30//1 15//1
f 41//1 55//1 28//1
f 19//1 44//1 55//1
f 44//1 11//1 26//1
f 45//1 56//1 33//1
f 20//1 48//1 56//1
f 48//1 16//1 31//1
f 41//1 19//1 55//1
f 13//1 41//1 28//1
f 54//1 66//1 15//1
f 52//1 57//1 40//1
f 22//1 54//1 57//1
f 54//1 15//1 38//1
f 31//1 58//1 36//1
f 16//1 43//1 58//1
f 43//1 19//1 41//1
f 39//1 59//1 43//1
f 51//1 65//1 21//1
f 42//1 60//1 44//1
f 18//1 40//1 60//1
f 40//1 7//1 35//1
f 29//1 61//1 24//1
f 14//1 47//1 61//1
f 47//1 20//1 45//1
f 37//1 62//1 47//1
f 6//1 32//1 62//1
f 32//1 17//1 46//1
f 46//1 63//1 48//1
f 32//1 64//1 17//1
f 34//1 64//1 32//1
f 10//1 51//1 64//1
f 51//1 21//1 49//1
f 25//1 65//1 51//1
f 2//1 23//1 65//1
f 23//1 8//1 50//1
f 39//1 16//1 48//1
f 47//1 62//1 20//1
f 24//1 61//1 9//1
f 44//1 60//1 11//1
f 42//1 19//1 43//1
f 36//1 58//1 13//1
f 40//1 57//1 7//1
f 33//1 56//1 5//1
f 28//1 55//1 3//1
f 53//1 66//1 54//1
f 12//1 27//1 66//1
f 27//1 1//1 30//1
f 18//1 52//1 40//1
f 52//1 22//1 57//1
f 57//1 54//1 38//1
f 5//1 31//1 36//1
f 31//1 16//1 58//1
f 58//1 43//1 41//1
f 16//1 39//1 43//1
f 18//1 42//1 59//1
f 19//1 42//1 44//1
f 42//1 18//1 60//1
f 60//1 40//1 35//1
f 4//1 29//1 24//1
f 29//1 14//1 61//1
f 61//1 47//1 45//1
f 14//1 37//1 47//1
f 37//1 6//1 62//1
f 62//1 32//1 46//1
f 20//1 46//1 48//1
f 46//1 17//1 63//1
f 6//1 34//1 32//1
f 34//1 10//1 64//1
f 64//1 51//1 49//1
f 10//1 25//1 51//1
f 25//1 2//1 65//1
f 65//1 23//1 50//1
f 22//1 53//1 54//1
f 53//1 12//1 66//1
f 66//1 27//1 30//1
