# Blender v2.69 (sub 0) OBJ File: 'walls.blend'
# www.blender.org
mtllib wall4.mtl
o Plane.004
v -3.000000 -3.000000 -0.000000
v 3.000000 -3.000000 -0.000000
v -3.000000 3.000000 0.000000
v 3.000000 3.000000 0.000000
v 0.000000 3.000000 0.000000
v 3.000000 0.000000 0.000000
v -3.000000 0.000000 0.000000
v 0.000000 0.000000 0.000000
v 1.500000 3.000000 0.000000
v 3.000000 -1.500000 -0.000000
v -3.000000 1.500000 0.000000
v -1.500000 3.000000 0.000000
v 3.000000 1.500000 0.000000
v -3.000000 -1.500000 -0.000000
v 0.000000 1.500000 0.000000
v 1.500000 0.000000 0.000000
v -1.500000 0.000000 0.000000
v -1.500000 1.500000 0.000000
v 1.500000 1.500000 0.000000
v 1.221003 -1.727942 -0.000000
v -1.247054 -1.630253 -0.000000
v 2.250000 -3.000000 -0.000000
v 2.250000 3.000000 0.000000
v 3.000000 -2.250000 -0.000000
v -3.000000 2.250000 0.000000
v -2.250000 -3.000000 -0.000000
v -2.250000 3.000000 0.000000
v 3.000000 2.250000 0.000000
v -3.000000 -2.250000 -0.000000
v 0.000000 2.250000 0.000000
v 2.250000 0.000000 0.000000
v -0.750000 0.000000 0.000000
v 0.750000 3.000000 0.000000
v 3.000000 -0.750000 -0.000000
v -3.000000 0.750000 0.000000
v -0.750000 3.000000 0.000000
v 3.000000 0.750000 0.000000
v -3.000000 -0.750000 -0.000000
v 0.000000 0.750000 0.000000
v 0.000000 -0.901962 -0.000000
v 0.750000 0.000000 0.000000
v -2.250000 0.000000 0.000000
v -1.500000 2.250000 0.000000
v -1.500000 0.750000 0.000000
v -0.750000 1.500000 0.000000
v -2.250000 1.500000 0.000000
v 1.500000 2.250000 0.000000
v 1.500000 0.750000 0.000000
v 2.250000 1.500000 0.000000
v 0.750000 1.500000 0.000000
v 1.500000 -0.750000 -0.000000
v 2.250000 -1.500000 -0.000000
v -1.500000 -0.750000 -0.000000
v -1.584664 -2.041596 -0.000000
v -0.984455 -1.298108 -0.000000
v -2.250000 -1.500000 -0.000000
v -2.250000 2.250000 0.000000
v 0.750000 2.250000 0.000000
v 0.610502 -0.901962 -0.000000
v -2.250000 -0.750000 -0.000000
v -0.750000 2.250000 0.000000
v -0.750000 0.750000 0.000000
v -2.250000 0.750000 0.000000
v 2.250000 2.250000 0.000000
v 2.250000 0.750000 0.000000
v 0.750000 0.750000 0.000000
v 2.250000 -0.750000 -0.000000
v 1.831505 -2.477942 -0.000000
v -0.610502 -0.901962 -0.000000
v -1.857555 -2.380253 -0.000000
vn 0.000000 0.000000 -1.000000
usemtl None
s off
f 57//1 25//1 3//1
f 58//1 30//1 5//1
f 59//1 40//1 8//1
f 60//1 38//1 7//1
f 61//1 43//1 12//1
f 62//1 44//1 18//1
f 63//1 35//1 11//1
f 64//1 47//1 9//1
f 65//1 48//1 19//1
f 66//1 39//1 15//1
f 67//1 51//1 16//1
f 69//1 53//1 17//1
f 70//1 29//1 14//1
f 43//1 57//1 27//1
f 18//1 46//1 57//1
f 46//1 11//1 25//1
f 47//1 58//1 33//1
f 19//1 50//1 58//1
f 50//1 15//1 30//1
f 51//1 59//1 41//1
f 53//1 60//1 42//1
f 21//1 56//1 60//1
f 56//1 14//1 38//1
f 30//1 61//1 36//1
f 15//1 45//1 61//1
f 45//1 18//1 43//1
f 39//1 62//1 45//1
f 8//1 32//1 62//1
f 32//1 17//1 44//1
f 44//1 63//1 46//1
f 17//1 42//1 63//1
f 42//1 7//1 35//1
f 28//1 64//1 23//1
f 13//1 49//1 64//1
f 49//1 19//1 47//1
f 37//1 65//1 49//1
f 6//1 31//1 65//1
f 31//1 16//1 48//1
f 48//1 66//1 50//1
f 16//1 41//1 66//1
f 41//1 8//1 39//1
f 34//1 67//1 31//1
f 10//1 52//1 67//1
f 52//1 20//1 51//1
f 24//1 68//1 52//1
f 2//1 22//1 68//1
f 40//1 69//1 32//1
f 55//1 21//1 53//1
f 54//1 70//1 56//1
f 26//1 1//1 29//1
f 27//1 57//1 3//1
f 33//1 58//1 5//1
f 41//1 59//1 8//1
f 42//1 60//1 7//1
f 36//1 61//1 12//1
f 45//1 62//1 18//1
f 46//1 63//1 11//1
f 23//1 64//1 9//1
f 49//1 65//1 19//1
f 50//1 66//1 15//1
f 31//1 67//1 16//1
f 52//1 68//1 20//1
f 32//1 69//1 17//1
f 56//1 70//1 14//1
f 12//1 43//1 27//1
f 43//1 18//1 57//1
f 57//1 46//1 25//1
f 9//1 47//1 33//1
f 47//1 19//1 58//1
f 58//1 50//1 30//1
f 16//1 51//1 41//1
f 51//1 20//1 59//1
f 17//1 53//1 42//1
f 53//1 21//1 60//1
f 60//1 56//1 38//1
f 5//1 30//1 36//1
f 30//1 15//1 61//1
f 61//1 45//1 43//1
f 15//1 39//1 45//1
f 39//1 8//1 62//1
f 62//1 32//1 44//1
f 18//1 44//1 46//1
f 44//1 17//1 63//1
f 63//1 42//1 35//1
f 4//1 28//1 23//1
f 28//1 13//1 64//1
f 64//1 49//1 47//1
f 13//1 37//1 49//1
f 37//1 6//1 65//1
f 65//1 31//1 48//1
f 19//1 48//1 50//1
f 48//1 16//1 66//1
f 66//1 41//1 39//1
f 6//1 34//1 31//1
f 34//1 10//1 67//1
f 67//1 52//1 51//1
f 10//1 24//1 52//1
f 24//1 2//1 68//1
f 8//1 40//1 32//1
f 69//1 55//1 53//1
f 21//1 54//1 56//1
f 70//1 26//1 29//1
