# Blender v2.69 (sub 0) OBJ File: 'walls.blend'
# www.blender.org
mtllib wall2.mtl
o Plane.002
v -3.000000 -3.000000 -0.000000
v 3.000000 -3.000000 -0.000000
v -3.000000 3.000000 0.000000
v 3.000000 3.000000 0.000000
v 0.000000 3.000000 0.000000
v 3.000000 0.000000 0.000000
v -3.000000 0.000000 0.000000
v 0.378567 0.443589 -0.000000
v 1.500000 -3.000000 -0.000000
v 1.500000 3.000000 0.000000
v 3.000000 -1.500000 -0.000000
v -3.000000 1.500000 0.000000
v -1.500000 -3.000000 -0.000000
v -1.500000 3.000000 0.000000
v 3.000000 1.500000 0.000000
v -3.000000 -1.500000 -0.000000
v 0.000000 1.500000 0.000000
v 1.500000 0.000000 0.000000
v -1.195207 0.148489 -0.000000
v -1.500000 1.500000 0.000000
v 1.500000 1.500000 0.000000
v 1.641923 -1.820735 -0.000000
v -1.500000 -1.500000 -0.000000
v 2.250000 -3.000000 -0.000000
v 2.250000 3.000000 0.000000
v 3.000000 -2.250000 -0.000000
v -3.000000 2.250000 0.000000
v -2.250000 -3.000000 -0.000000
v -2.250000 3.000000 0.000000
v 3.000000 2.250000 0.000000
v -3.000000 -2.250000 -0.000000
v 0.000000 2.250000 0.000000
v 2.250000 0.000000 0.000000
v 0.750000 -3.000000 -0.000000
v 0.750000 3.000000 0.000000
v 3.000000 -0.750000 -0.000000
v -3.000000 0.750000 0.000000
v -1.076361 -3.000000 -0.000000
v -0.750000 3.000000 0.000000
v 3.000000 0.750000 0.000000
v -3.000000 -0.750000 -0.000000
v -0.390760 0.413947 0.000000
v 0.727491 0.055018 -0.000000
v -2.250000 0.000000 0.000000
v -1.500000 2.250000 0.000000
v -1.757902 0.968825 0.000000
v -1.164206 1.226468 0.000000
v -2.250000 1.500000 0.000000
v 1.500000 2.250000 0.000000
v 1.500000 0.750000 0.000000
v 2.250000 1.500000 0.000000
v 0.750000 1.500000 0.000000
v 1.158320 -0.991020 -0.000000
v 1.353700 -2.204985 -0.000000
v 2.250000 -1.500000 -0.000000
v -1.500000 -0.750000 -0.000000
v -1.500000 -2.250000 -0.000000
v -0.707794 -1.523446 -0.000000
v -2.250000 -1.500000 -0.000000
v -2.250000 2.250000 0.000000
v 0.750000 2.250000 0.000000
v 0.835967 -0.507729 -0.000000
v -2.250000 -0.750000 -0.000000
v -0.750000 2.250000 0.000000
v -2.250000 0.750000 0.000000
v 2.250000 2.250000 0.000000
v 2.250000 0.750000 0.000000
v 0.750000 0.750000 0.000000
v 2.250000 -0.750000 -0.000000
v 2.250000 -2.250000 -0.000000
v 0.571188 -1.709500 -0.000000
v -0.750000 -0.750000 -0.000000
v -0.750000 -2.250000 -0.000000
v -2.250000 -2.250000 -0.000000
vn 0.000000 0.000000 -1.000000
vn -0.000000 0.000001 -1.000000
usemtl Material.002
s off
f 60//1 27//1 3//1
f 61//1 32//1 5//1
f 63//1 41//1 7//1
f 64//1 45//1 14//1
f 65//1 37//1 12//1
f 66//1 49//1 10//1
f 67//1 50//1 21//1
f 68//1 42//1 17//1
f 69//1 53//1 18//1
f 70//1 54//1 22//1
f 72//1 56//1 19//1
f 73//1 57//1 23//1
f 74//1 31//1 16//1
f 45//1 60//1 29//1
f 20//1 48//1 60//1
f 48//1 12//1 27//1
f 49//1 61//1 35//1
f 21//1 52//1 61//1
f 52//1 17//1 32//1
f 53//1 62//1 18//1
f 56//1 63//1 44//1
f 23//1 59//1 63//1
f 59//1 16//1 41//1
f 32//1 64//1 39//1
f 17//1 47//1 64//1
f 47//1 20//1 45//1
f 46//1 65//1 48//1
f 19//1 44//1 65//1
f 44//1 7//1 37//1
f 30//1 66//1 25//1
f 15//1 51//1 66//1
f 51//1 21//1 49//1
f 40//1 67//1 51//1
f 6//1 33//1 67//1
f 33//1 18//1 50//1
f 50//1 68//1 52//1
f 18//1 43//1 68//1
f 43//1 8//1 68//1
f 36//1 69//1 33//1
f 11//1 55//1 69//1
f 55//1 22//1 53//1
f 26//1 70//1 55//1
f 2//1 24//1 70//1
f 24//1 9//1 54//1
f 9//1 34//1 54//1
f 58//1 23//1 56//1
f 38//1 13//1 57//1
f 57//1 74//1 59//1
f 13//1 28//1 74//1
f 28//1 1//1 31//1
f 29//1 60//1 3//1
f 35//1 61//1 5//1
f 44//1 63//1 7//1
f 39//1 64//1 14//1
f 48//1 65//1 12//1
f 25//1 66//1 10//1
f 51//1 67//1 21//1
f 52//1 68//1 17//1
f 33//1 69//1 18//1
f 55//1 70//1 22//1
f 58//1 73//1 23//1
f 59//1 74//1 16//1
f 14//1 45//1 29//1
f 45//1 20//1 60//1
f 60//1 48//1 27//1
f 10//1 49//1 35//1
f 49//1 21//1 61//1
f 61//1 52//1 32//1
f 62//1 43//1 18//1
f 19//1 56//1 44//1
f 56//1 23//1 63//1
f 63//1 59//1 41//1
f 5//1 32//1 39//1
f 32//1 17//1 64//1
f 64//1 47//1 45//1
f 17//1 42//1 47//1
f 20//1 46//1 48//1
f 46//1 19//1 65//1
f 65//1 44//1 37//1
f 4//1 30//1 25//1
f 30//1 15//1 66//1
f 66//1 51//1 49//1
f 15//1 40//1 51//1
f 40//1 6//1 67//1
f 67//1 33//1 50//1
f 21//1 50//1 52//1
f 50//1 18//1 68//1
f 8//2 42//2 68//2
f 6//1 36//1 33//1
f 36//1 11//1 69//1
f 69//1 55//1 53//1
f 11//1 26//1 55//1
f 26//1 2//1 70//1
f 70//1 24//1 54//1
f 34//1 71//1 54//1
f 72//1 58//1 56//1
f 73//1 38//1 57//1
f 23//1 57//1 59//1
f 57//1 13//1 74//1
f 74//1 28//1 31//1
