# Blender v2.69 (sub 0) OBJ File: 'walls.blend'
# www.blender.org
mtllib wall0.mtl
o Plane
v -3.000000 -3.000000 -0.000000
v 3.000000 -3.000000 -0.000000
v -3.000000 3.000000 0.000000
v 3.000000 3.000000 0.000000
v 0.000000 3.000000 0.000000
v 3.000000 0.000000 0.000000
v -3.000000 0.000000 0.000000
v 0.192997 0.669814 0.000000
v 1.500000 -3.000000 -0.000000
v 1.500000 3.000000 0.000000
v 3.000000 -1.500000 -0.000000
v -3.000000 1.500000 0.000000
v -1.500000 -3.000000 -0.000000
v -1.500000 3.000000 0.000000
v 3.000000 1.500000 0.000000
v -3.000000 -1.500000 -0.000000
v 0.000000 1.500000 0.000000
v 1.477294 -0.158939 0.000000
v -1.885995 0.000000 0.000000
v -1.500000 1.500000 0.000000
v 1.500000 1.500000 0.000000
v 1.500000 -1.500000 -0.000000
v -1.500000 -1.500000 -0.000000
v 2.250000 -3.000000 -0.000000
v 2.250000 3.000000 0.000000
v 3.000000 -2.250000 -0.000000
v -3.000000 2.250000 0.000000
v -2.250000 -3.000000 -0.000000
v -2.250000 3.000000 0.000000
v 3.000000 2.250000 0.000000
v -3.000000 -2.250000 -0.000000
v 0.000000 2.250000 0.000000
v 2.045650 -0.102175 0.000000
v -0.591061 0.170292 0.000000
v 0.750000 -3.000000 -0.000000
v 0.750000 3.000000 0.000000
v 3.000000 -0.750000 -0.000000
v -3.000000 0.750000 0.000000
v -0.750000 -3.000000 -0.000000
v -0.750000 3.000000 0.000000
v 3.000000 0.750000 0.000000
v -3.000000 -0.750000 -0.000000
v 0.306525 1.124642 0.000000
v 0.545650 0.249761 0.000000
v -2.250000 0.000000 0.000000
v -1.500000 2.250000 0.000000
v -1.738409 0.750000 0.000000
v -0.750000 1.500000 0.000000
v -2.250000 1.500000 0.000000
v 1.500000 2.250000 0.000000
v 1.500000 0.750000 0.000000
v 2.250000 1.500000 0.000000
v 0.750000 1.500000 0.000000
v 1.500000 -0.750000 -0.000000
v 1.500000 -2.250000 -0.000000
v 2.250000 -1.500000 -0.000000
v 0.579708 -1.500000 -0.000000
v -1.238886 -0.466181 -0.000000
v -1.500000 -2.250000 -0.000000
v -0.477533 -1.500000 -0.000000
v -2.250000 -1.500000 -0.000000
v -2.250000 2.250000 0.000000
v 0.750000 2.250000 0.000000
v 0.750000 -0.750000 -0.000000
v -2.250000 -0.750000 -0.000000
v -0.750000 2.250000 0.000000
v -1.056525 0.341300 0.000000
v -2.250000 0.750000 0.000000
v 2.250000 2.250000 0.000000
v 2.250000 0.750000 0.000000
v 0.750000 0.750000 0.000000
v 2.318117 -0.477533 -0.000000
v 2.250000 -2.250000 -0.000000
v 0.750000 -2.250000 -0.000000
v -0.750000 -0.750000 -0.000000
v -0.750000 -2.250000 -0.000000
v -2.250000 -2.250000 -0.000000
vt 0.874903 0.874926
vt 0.999877 0.874925
vt 0.999878 0.999898
vt 0.375017 0.874925
vt 0.499988 0.874927
vt 0.499986 0.999899
vt 0.874889 0.375031
vt 0.999864 0.375025
vt 0.999870 0.500001
vt 0.624959 0.874928
vt 0.749931 0.874927
vt 0.749931 0.999900
vt 0.676032 0.556886
vt 0.789653 0.624983
vt 0.749930 0.749955
vt 0.874899 0.624980
vt 0.999873 0.624977
vt 0.999875 0.749951
vt 0.125077 0.874915
vt 0.250047 0.874921
vt 0.250042 0.999891
vt 0.125090 0.624979
vt 0.250056 0.624984
vt 0.250052 0.749951
vt 0.375022 0.624988
vt 0.448914 0.687413
vt 0.375020 0.749955
vt 0.125133 0.125127
vt 0.250096 0.125141
vt 0.250082 0.250103
vt 0.624927 0.125093
vt 0.749902 0.125087
vt 0.749908 0.250062
vt 0.874877 0.125081
vt 0.999852 0.125075
vt 0.999858 0.250050
vt 0.874904 0.999899
vt 0.874902 0.749953
vt 0.375014 0.999896
vt 0.499989 0.749957
vt 0.403418 0.250119
vt 0.375031 0.375079
vt 0.706406 0.422333
vt 0.814240 0.500009
vt 0.874883 0.250056
vt 0.624958 0.999900
vt 0.624959 0.749957
vt 0.467831 0.611628
vt 0.598473 0.528393
vt 0.874895 0.500006
vt 0.000108 0.874908
vt 0.125071 0.999885
vt 0.000116 0.749939
vt 0.125084 0.749946
vt 0.000124 0.624971
vt 0.000132 0.500005
vt 0.159146 0.482992
vt 0.253845 0.473537
vt 0.409073 0.541639
vt 0.000143 0.375040
vt 0.113753 0.420449
vt 0.000156 0.250077
vt 0.125120 0.250090
vt 0.250069 0.375065
vt 0.000170 0.125114
vt 0.000184 0.000151
vt 0.125147 0.000164
vt 0.250109 0.000178
vt 0.375058 0.125154
vt 0.375072 0.000192
vt 0.579531 0.250070
vt 0.624939 0.375043
vt 0.624921 0.000118
vt 0.749896 0.000112
vt 0.874871 0.000106
vt 0.999845 0.000100
vt 0.000100 0.999878
vn 0.000000 0.000000 -1.000000
usemtl Material.001
s off
f 62/1/1 27/2/1 3/3/1
f 63/4/1 32/5/1 5/6/1
f 65/7/1 42/8/1 7/9/1
f 66/10/1 46/11/1 14/12/1
f 67/13/1 47/14/1 20/15/1
f 68/16/1 38/17/1 12/18/1
f 69/19/1 50/20/1 10/21/1
f 70/22/1 51/23/1 21/24/1
f 71/25/1 43/26/1 53/27/1
f 73/28/1 55/29/1 22/30/1
f 76/31/1 59/32/1 23/33/1
f 77/34/1 31/35/1 16/36/1
f 46/11/1 62/1/1 29/37/1
f 20/15/1 49/38/1 62/1/1
f 49/38/1 12/18/1 27/2/1
f 50/20/1 63/4/1 36/39/1
f 21/24/1 53/27/1 63/4/1
f 53/27/1 17/40/1 32/5/1
f 22/30/1 57/41/1 64/42/1
f 58/43/1 65/7/1 19/44/1
f 23/33/1 61/45/1 65/7/1
f 61/45/1 16/36/1 42/8/1
f 32/5/1 66/10/1 40/46/1
f 17/40/1 48/47/1 66/10/1
f 48/47/1 20/15/1 46/11/1
f 43/26/1 67/13/1 48/47/1
f 8/48/1 34/49/1 67/13/1
f 47/14/1 68/16/1 49/38/1
f 19/44/1 45/50/1 68/16/1
f 45/50/1 7/9/1 38/17/1
f 30/51/1 69/19/1 25/52/1
f 15/53/1 52/54/1 69/19/1
f 52/54/1 21/24/1 50/20/1
f 41/55/1 70/22/1 52/54/1
f 6/56/1 33/57/1 70/22/1
f 33/57/1 18/58/1 51/23/1
f 51/23/1 71/25/1 53/27/1
f 18/58/1 44/59/1 51/23/1
f 44/59/1 8/48/1 71/25/1
f 37/60/1 72/61/1 6/56/1
f 11/62/1 56/63/1 37/60/1
f 56/63/1 22/30/1 54/64/1
f 26/65/1 73/28/1 56/63/1
f 2/66/1 24/67/1 73/28/1
f 24/67/1 9/68/1 55/29/1
f 55/29/1 74/69/1 22/30/1
f 9/68/1 35/70/1 74/69/1
f 60/71/1 23/33/1 75/72/1
f 39/73/1 13/74/1 59/32/1
f 59/32/1 77/34/1 61/45/1
f 13/74/1 28/75/1 77/34/1
f 28/75/1 1/76/1 31/35/1
f 29/37/1 62/1/1 3/3/1
f 36/39/1 63/4/1 5/6/1
f 45/50/1 65/7/1 7/9/1
f 40/46/1 66/10/1 14/12/1
f 48/47/1 67/13/1 20/15/1
f 49/38/1 68/16/1 12/18/1
f 25/52/1 69/19/1 10/21/1
f 52/54/1 70/22/1 21/24/1
f 43/26/1 17/40/1 53/27/1
f 56/63/1 73/28/1 22/30/1
f 60/71/1 76/31/1 23/33/1
f 61/45/1 77/34/1 16/36/1
f 14/12/1 46/11/1 29/37/1
f 46/11/1 20/15/1 62/1/1
f 62/1/1 49/38/1 27/2/1
f 10/21/1 50/20/1 36/39/1
f 50/20/1 21/24/1 63/4/1
f 63/4/1 53/27/1 32/5/1
f 54/64/1 22/30/1 64/42/1
f 65/7/1 45/50/1 19/44/1
f 58/43/1 23/33/1 65/7/1
f 65/7/1 61/45/1 42/8/1
f 5/6/1 32/5/1 40/46/1
f 32/5/1 17/40/1 66/10/1
f 66/10/1 48/47/1 46/11/1
f 17/40/1 43/26/1 48/47/1
f 43/26/1 8/48/1 67/13/1
f 20/15/1 47/14/1 49/38/1
f 47/14/1 19/44/1 68/16/1
f 68/16/1 45/50/1 38/17/1
f 4/77/1 30/51/1 25/52/1
f 30/51/1 15/53/1 69/19/1
f 69/19/1 52/54/1 50/20/1
f 15/53/1 41/55/1 52/54/1
f 41/55/1 6/56/1 70/22/1
f 70/22/1 33/57/1 51/23/1
f 21/24/1 51/23/1 53/27/1
f 44/59/1 71/25/1 51/23/1
f 8/48/1 43/26/1 71/25/1
f 72/61/1 33/57/1 6/56/1
f 56/63/1 72/61/1 37/60/1
f 72/61/1 56/63/1 54/64/1
f 11/62/1 26/65/1 56/63/1
f 26/65/1 2/66/1 73/28/1
f 73/28/1 24/67/1 55/29/1
f 74/69/1 57/41/1 22/30/1
f 55/29/1 9/68/1 74/69/1
f 23/33/1 58/43/1 75/72/1
f 76/31/1 39/73/1 59/32/1
f 23/33/1 59/32/1 61/45/1
f 59/32/1 13/74/1 77/34/1
f 77/34/1 28/75/1 31/35/1
